<svg xmlns="http://www.w3.org/2000/svg" width="796" height="689" viewBox="0 0 796 689" fill="none">
<path d="M446.233 239L352 328.266L445.252 418L512 353.971V301.159L446.233 239Z" fill="#070749"/>
<path d="M446.233 486L352 575.266L445.252 665L512 600.971V548.159L446.233 486Z" fill="#14549C"/>
<path d="M685 0L589 95.5L684 191.5L752 123V66.5L685 0Z" fill="#14549C"/>
<path d="M795 297V125L711 210.607L795 297Z" fill="#50A7E6"/>
<path d="M795 530V358L711 443.607L795 530Z" fill="#B9DDF8"/>
<path d="M247.674 689L246 687.33L326.345 608L382 663.531V689H247.674Z" fill="#B9DDF8"/>
<path d="M1.83385 689L0 687.165L88.0246 600L149 661.015V689H1.83385Z" fill="#50A7E6"/>
<path d="M564 353L468 448.749L563 545L631 476.321V419.674L564 353Z" fill="#14549C"/>
<path d="M683.11 469L593 559.264L682.172 650L746 585.256V531.854L683.11 469Z" fill="#14549C"/>
<path d="M675 234L579 325.76L674 418L742 352.183V297.896L675 234Z" fill="#50A7E6"/>
<path d="M712 659L795.5 575.5V689H742L712 659Z" fill="#50A7E6"/>
<path d="M473.5 688.5L564.5 597L628.5 661V688.5H473.5Z" fill="#070749"/>
</svg>